<?xml version="1.0" encoding="UTF-8"?>
<!DOCTYPE svg PUBLIC "-//W3C//DTD SVG 1.1//EN" "http://www.w3.org/Graphics/SVG/1.1/DTD/svg11.dtd">
<svg xmlns="http://www.w3.org/2000/svg" version="1.1" width="512px" height="512px" style="shape-rendering:geometricPrecision; text-rendering:geometricPrecision; image-rendering:optimizeQuality; fill-rule:evenodd; clip-rule:evenodd" xmlns:xlink="http://www.w3.org/1999/xlink">
<g><path style="opacity:0.996" fill="#ebeef0" d="M 460.5,21.5 C 472.946,24.4417 481.113,32.1084 485,44.5C 485.667,107.833 485.667,171.167 485,234.5C 480.996,247.345 472.496,255.012 459.5,257.5C 380.122,257.988 300.789,257.488 221.5,256C 213.274,252.107 207.441,245.941 204,237.5C 202.557,216.212 202.057,194.879 202.5,173.5C 216.504,173.667 230.504,173.5 244.5,173C 246.246,172.529 247.913,171.862 249.5,171C 264.167,159.667 278.833,148.333 293.5,137C 300.535,130.833 302.369,123.333 299,114.5C 294.036,107.973 287.536,105.807 279.5,108C 265.167,119 250.833,130 236.5,141C 224.992,141.826 213.659,141.659 202.5,140.5C 202.333,109.165 202.5,77.8316 203,46.5C 205.649,33.8523 213.149,25.6856 225.5,22C 303.833,21.5 382.166,21.3333 460.5,21.5 Z"/></g>
<g><path style="opacity:1" fill="#d1d1d6" d="M 460.5,21.5 C 477.85,19.9125 489.35,27.2459 495,43.5C 495.667,107.5 495.667,171.5 495,235.5C 489.247,252.387 477.414,259.72 459.5,257.5C 472.496,255.012 480.996,247.345 485,234.5C 485.667,171.167 485.667,107.833 485,44.5C 481.113,32.1084 472.946,24.4417 460.5,21.5 Z"/></g>
<g><path style="opacity:0.992" fill="#f6dbcc" d="M 110.5,36.5 C 127.924,39.4691 139.09,49.4691 144,66.5C 147.287,86.7503 142.954,105.084 131,121.5C 124.177,128.657 116.011,133.324 106.5,135.5C 87.2007,130.366 75.034,118.033 70,98.5C 65.2981,81.5743 67.2981,65.5743 76,50.5C 85.1779,40.2704 96.6779,35.6037 110.5,36.5 Z"/></g>
<g><path style="opacity:0.998" fill="#f1cdbd" d="M 110.5,36.5 C 138.121,37.6234 152.121,52.1234 152.5,80C 152.27,99.0431 145.27,115.043 131.5,128C 124.067,133.421 115.734,135.921 106.5,135.5C 116.011,133.324 124.177,128.657 131,121.5C 142.954,105.084 147.287,86.7503 144,66.5C 139.09,49.4691 127.924,39.4691 110.5,36.5 Z"/></g>
<g><path style="opacity:1" fill="#fee077" d="M 398.5,39.5 C 399.298,43.7323 400.965,47.5656 403.5,51C 409.067,52.7834 414.401,55.1167 419.5,58C 421.066,58.765 422.399,58.5983 423.5,57.5C 426.594,56.7866 429.594,55.7866 432.5,54.5C 435.462,57.9641 438.629,61.2975 442,64.5C 441.19,68.4955 440.023,72.4955 438.5,76.5C 441.11,82.0526 443.443,87.7192 445.5,93.5C 448.717,94.7598 451.884,96.0931 455,97.5C 455.667,103.5 455.667,109.5 455,115.5C 451.649,117.26 448.149,118.594 444.5,119.5C 443.204,125.556 441.204,131.389 438.5,137C 439.549,140.434 440.882,143.767 442.5,147C 439.344,150.989 436.011,154.823 432.5,158.5C 429.594,157.213 426.594,156.213 423.5,155.5C 422.399,154.402 421.066,154.235 419.5,155C 414.08,158.043 408.413,160.543 402.5,162.5C 400.762,166.049 399.429,169.716 398.5,173.5C 394.116,173.826 389.783,173.492 385.5,172.5C 384.211,168.956 382.544,165.623 380.5,162.5C 374.933,160.717 369.599,158.383 364.5,155.5C 361.025,157.267 357.525,158.933 354,160.5C 350,156.5 346,152.5 342,148.5C 342.711,144.086 343.711,139.753 345,135.5C 342.413,130.739 340.413,125.739 339,120.5C 335.333,118.833 331.667,117.167 328,115.5C 327.333,109.5 327.333,103.5 328,97.5C 331.576,95.9617 335.076,94.295 338.5,92.5C 340.116,87.2668 342.283,82.2668 345,77.5C 343.711,73.2473 342.711,68.914 342,64.5C 346,60.5 350,56.5 354,52.5C 357.354,54.4525 360.854,56.1191 364.5,57.5C 369.599,54.6167 374.933,52.2834 380.5,50.5C 382.295,47.0761 383.962,43.5761 385.5,40C 389.821,39.501 394.154,39.3343 398.5,39.5 Z"/></g>
<g><path style="opacity:1" fill="#fed268" d="M 398.5,39.5 C 400.467,39.2606 402.301,39.5939 404,40.5C 405.217,43.9935 406.717,47.3268 408.5,50.5C 413.952,52.0619 418.952,54.3952 423.5,57.5C 422.399,58.5983 421.066,58.765 419.5,58C 414.401,55.1167 409.067,52.7834 403.5,51C 400.965,47.5656 399.298,43.7323 398.5,39.5 Z"/></g>
<g><path style="opacity:1" fill="#fed167" d="M 432.5,158.5 C 436.011,154.823 439.344,150.989 442.5,147C 440.882,143.767 439.549,140.434 438.5,137C 441.204,131.389 443.204,125.556 444.5,119.5C 448.149,118.594 451.649,117.26 455,115.5C 455.667,109.5 455.667,103.5 455,97.5C 451.884,96.0931 448.717,94.7598 445.5,93.5C 443.443,87.7192 441.11,82.0526 438.5,76.5C 440.023,72.4955 441.19,68.4955 442,64.5C 438.629,61.2975 435.462,57.9641 432.5,54.5C 433.172,53.7326 434.005,53.0659 435,52.5C 439.5,57 444,61.5 448.5,66C 446.933,69.5255 445.267,73.0255 443.5,76.5C 446.366,81.5687 448.699,86.902 450.5,92.5C 453.924,94.295 457.424,95.9617 461,97.5C 461.667,103.5 461.667,109.5 461,115.5C 457.465,117.069 453.965,118.735 450.5,120.5C 448.936,126.199 446.603,131.532 443.5,136.5C 444.881,140.146 446.548,143.646 448.5,147C 444,151.5 439.5,156 435,160.5C 434.005,159.934 433.172,159.267 432.5,158.5 Z"/></g>
<g><path style="opacity:1" fill="#ebeef0" d="M 394.5,71.5 C 412.269,72.4311 423.769,81.4311 429,98.5C 431.026,124.969 418.86,139.302 392.5,141.5C 370.171,133.604 361.671,117.937 367,94.5C 372.419,82.2399 381.585,74.5732 394.5,71.5 Z"/></g>
<g><path style="opacity:1" fill="#d3d3d6" d="M 394.5,71.5 C 381.585,74.5732 372.419,82.2399 367,94.5C 361.671,117.937 370.171,133.604 392.5,141.5C 376.988,140.163 366.488,132.163 361,117.5C 356.227,96.8806 363.393,82.0473 382.5,73C 386.418,71.8436 390.418,71.3436 394.5,71.5 Z"/></g>
<g><path style="opacity:1" fill="#8cc9fd" d="M 407.5,88.5 C 415.905,89.3791 418.739,93.7124 416,101.5C 408.167,108.667 400.333,115.833 392.5,123C 389.5,125 386.5,125 383.5,123C 380,119.5 376.5,116 373,112.5C 370.167,102 374,98.1667 384.5,101C 385.685,102.353 387.019,103.52 388.5,104.5C 394.878,99.1142 401.211,93.7809 407.5,88.5 Z"/></g>
<g><path style="opacity:0.992" fill="#8ac9fd" d="M 202.5,173.5 C 196.824,173.334 191.157,173.501 185.5,174C 178.333,182.5 171.167,191 164,199.5C 163.5,237.165 163.333,274.832 163.5,312.5C 130.5,312.5 97.5,312.5 64.5,312.5C 64.6667,267.165 64.5,221.832 64,176.5C 59.7481,170.347 55.0814,170.014 50,175.5C 49.8327,221.335 49.3327,267.002 48.5,312.5C 31.5514,309.72 20.7181,300.053 16,283.5C 15.3333,246.833 15.3333,210.167 16,173.5C 19.0877,161.407 26.2544,152.574 37.5,147C 44.4995,143.778 51.8328,141.778 59.5,141C 107.166,140.5 154.832,140.333 202.5,140.5C 213.659,141.659 224.992,141.826 236.5,141C 250.833,130 265.167,119 279.5,108C 287.536,105.807 294.036,107.973 299,114.5C 302.369,123.333 300.535,130.833 293.5,137C 278.833,148.333 264.167,159.667 249.5,171C 247.913,171.862 246.246,172.529 244.5,173C 230.504,173.5 216.504,173.667 202.5,173.5 Z"/></g>
<g><path style="opacity:1" fill="#fed269" d="M 423.5,155.5 C 419.052,158.773 414.052,161.106 408.5,162.5C 406.717,165.673 405.217,169.006 404,172.5C 402.301,173.406 400.467,173.739 398.5,173.5C 399.429,169.716 400.762,166.049 402.5,162.5C 408.413,160.543 414.08,158.043 419.5,155C 421.066,154.235 422.399,154.402 423.5,155.5 Z"/></g>
<g><path style="opacity:1" fill="#60b7fe" d="M 64.5,312.5 C 61.2869,312.19 58.2869,312.523 55.5,313.5C 52.9407,313.802 50.6074,313.468 48.5,312.5C 49.3327,267.002 49.8327,221.335 50,175.5C 55.0814,170.014 59.7481,170.347 64,176.5C 64.5,221.832 64.6667,267.165 64.5,312.5 Z"/></g>
<g><path style="opacity:1" fill="#a79ba7" d="M 250.5,184.5 C 303.501,184.333 356.501,184.5 409.5,185C 414.689,187.913 415.856,192.08 413,197.5C 411.829,198.893 410.329,199.727 408.5,200C 356.167,200.667 303.833,200.667 251.5,200C 246.931,197.459 245.431,193.625 247,188.5C 248.376,187.295 249.542,185.962 250.5,184.5 Z"/></g>
<g><path style="opacity:1" fill="#a79ba7" d="M 250.5,214.5 C 320.501,214.333 390.501,214.5 460.5,215C 465.689,217.913 466.856,222.08 464,227.5C 462.829,228.893 461.329,229.727 459.5,230C 390.167,230.667 320.833,230.667 251.5,230C 246.931,227.459 245.431,223.625 247,218.5C 248.376,217.295 249.542,215.962 250.5,214.5 Z"/></g>
<g><path style="opacity:1" fill="#827683" d="M 162.5,468.5 C 161.761,472.408 159.428,474.908 155.5,476C 125.167,476.667 94.8333,476.667 64.5,476C 60.9798,475.496 58.4798,473.663 57,470.5C 56.5,450.836 56.3334,431.169 56.5,411.5C 56.5,378.833 56.5,346.167 56.5,313.5C 91.8333,313.5 127.167,313.5 162.5,313.5C 162.5,365.167 162.5,416.833 162.5,468.5 Z"/></g>
<g><path style="opacity:1" fill="#685e68" d="M 105.5,345.5 C 110.266,344.551 114.1,345.884 117,349.5C 117.5,391.499 117.667,433.499 117.5,475.5C 112.5,475.5 107.5,475.5 102.5,475.5C 102.333,433.499 102.5,391.499 103,349.5C 103.662,348.016 104.496,346.683 105.5,345.5 Z"/></g>
<g><path style="opacity:0.681" fill="#8598b6" d="M 64.5,312.5 C 97.5,312.5 130.5,312.5 163.5,312.5C 163.832,364.669 163.499,416.669 162.5,468.5C 162.5,416.833 162.5,365.167 162.5,313.5C 127.167,313.5 91.8333,313.5 56.5,313.5C 56.5,346.167 56.5,378.833 56.5,411.5C 55.5017,379.004 55.1684,346.338 55.5,313.5C 58.2869,312.523 61.2869,312.19 64.5,312.5 Z"/></g>
<g><path style="opacity:0.985" fill="#f6dccc" d="M 232.5,378.5 C 250.991,384.199 257.824,396.532 253,415.5C 248.751,424.363 241.918,430.03 232.5,432.5C 217.248,429.744 209.248,420.577 208.5,405C 209.696,389.972 217.696,381.139 232.5,378.5 Z"/></g>
<g><path style="opacity:0.999" fill="#f1ccbd" d="M 232.5,378.5 C 251.107,377.974 261.44,386.974 263.5,405.5C 260.912,423.422 250.579,432.422 232.5,432.5C 241.918,430.03 248.751,424.363 253,415.5C 257.824,396.532 250.991,384.199 232.5,378.5 Z"/></g>
<g><path style="opacity:0.984" fill="#f6dbcc" d="M 337.5,378.5 C 358.754,387.363 363.92,402.03 353,422.5C 348.274,427.272 342.774,430.606 336.5,432.5C 317.605,427.723 310.105,415.723 314,396.5C 317.932,385.401 325.765,379.401 337.5,378.5 Z"/></g>
<g><path style="opacity:1" fill="#f1cdbe" d="M 337.5,378.5 C 355.656,378.318 365.656,387.318 367.5,405.5C 364.917,423.417 354.583,432.417 336.5,432.5C 342.774,430.606 348.274,427.272 353,422.5C 363.92,402.03 358.754,387.363 337.5,378.5 Z"/></g>
<g><path style="opacity:0.985" fill="#f6dbcc" d="M 440.5,378.5 C 458.727,384.272 465.56,396.606 461,415.5C 456.751,424.363 449.918,430.03 440.5,432.5C 422.546,428.28 414.712,416.947 417,398.5C 420.722,386.941 428.556,380.274 440.5,378.5 Z"/></g>
<g><path style="opacity:0.998" fill="#f1ccbd" d="M 440.5,378.5 C 453.896,377.615 463.396,383.282 469,395.5C 473.595,418.735 464.095,431.068 440.5,432.5C 449.918,430.03 456.751,424.363 461,415.5C 465.56,396.606 458.727,384.272 440.5,378.5 Z"/></g>
<g><path style="opacity:0.991" fill="#89c8fe" d="M 231.5,441.5 C 255.42,445.553 270.92,459.22 278,482.5C 279.084,485.659 278.25,487.992 275.5,489.5C 245.498,489.667 215.498,489.5 185.5,489C 183.556,486.847 183.056,484.347 184,481.5C 191.444,458.224 207.278,444.89 231.5,441.5 Z"/></g>
<g><path style="opacity:1" fill="#63b8fe" d="M 231.5,441.5 C 259.97,441.327 278.637,454.66 287.5,481.5C 287.5,483.833 287.5,486.167 287.5,488.5C 283.6,489.43 279.6,489.763 275.5,489.5C 278.25,487.992 279.084,485.659 278,482.5C 270.92,459.22 255.42,445.553 231.5,441.5 Z"/></g>
<g><path style="opacity:0.991" fill="#89c8fe" d="M 346.5,442.5 C 344.801,442.34 343.134,442.506 341.5,443C 364.417,448.911 377.917,463.411 382,486.5C 381.302,487.691 380.469,488.691 379.5,489.5C 348.76,489.825 318.093,489.492 287.5,488.5C 287.5,486.167 287.5,483.833 287.5,481.5C 297.351,453.649 317.018,440.649 346.5,442.5 Z"/></g>
<g><path style="opacity:1" fill="#63b8fe" d="M 346.5,442.5 C 369.065,445.448 383.732,457.781 390.5,479.5C 391.299,482.43 391.632,485.43 391.5,488.5C 387.6,489.43 383.6,489.763 379.5,489.5C 380.469,488.691 381.302,487.691 382,486.5C 377.917,463.411 364.417,448.911 341.5,443C 343.134,442.506 344.801,442.34 346.5,442.5 Z"/></g>
<g><path style="opacity:0.991" fill="#89c9fe" d="M 439.5,441.5 C 463.908,446.403 479.574,460.903 486.5,485C 485.685,486.643 484.685,488.143 483.5,489.5C 452.76,489.825 422.093,489.492 391.5,488.5C 391.632,485.43 391.299,482.43 390.5,479.5C 391.117,479.611 391.617,479.944 392,480.5C 399.841,457.831 415.674,444.831 439.5,441.5 Z"/></g>
<g><path style="opacity:1" fill="#63b8fe" d="M 439.5,441.5 C 464.431,441.206 482.264,452.206 493,474.5C 495.362,479.215 495.862,484.049 494.5,489C 490.848,489.499 487.182,489.665 483.5,489.5C 484.685,488.143 485.685,486.643 486.5,485C 479.574,460.903 463.908,446.403 439.5,441.5 Z"/></g>
</svg>
