<?xml version="1.0" encoding="UTF-8"?>
<!DOCTYPE svg PUBLIC "-//W3C//DTD SVG 1.1//EN" "http://www.w3.org/Graphics/SVG/1.1/DTD/svg11.dtd">
<svg xmlns="http://www.w3.org/2000/svg" version="1.1" width="512px" height="512px" style="shape-rendering:geometricPrecision; text-rendering:geometricPrecision; image-rendering:optimizeQuality; fill-rule:evenodd; clip-rule:evenodd" xmlns:xlink="http://www.w3.org/1999/xlink">
<g><path style="opacity:0.993" fill="#010100" d="M 187.5,-0.5 C 190.167,-0.5 192.833,-0.5 195.5,-0.5C 233.528,18.9311 271.695,38.2644 310,57.5C 312.109,61.7809 311.942,65.9476 309.5,70C 299.833,74.8333 290.167,79.6667 280.5,84.5C 279.504,90.7985 279.17,97.1318 279.5,103.5C 279.5,111.5 279.5,119.5 279.5,127.5C 330.834,127.333 382.168,127.5 433.5,128C 435.329,128.273 436.829,129.107 438,130.5C 438.935,153.433 450.769,165.933 473.5,168C 475.329,168.273 476.829,169.107 478,170.5C 479.66,242.085 479.993,313.752 479,385.5C 478.727,387.329 477.893,388.829 476.5,390C 465.515,390.324 456.015,394.158 448,401.5C 446.701,411.835 444.201,421.835 440.5,431.5C 437.085,436.764 433.418,441.931 429.5,447C 445.167,447.667 460.833,447.667 476.5,447C 489.166,443.173 495.499,434.673 495.5,421.5C 495.667,324.166 495.5,226.833 495,129.5C 491.74,120.573 485.573,114.739 476.5,112C 417.833,111.667 359.167,111.333 300.5,111C 297.292,109.563 295.625,107.063 295.5,103.5C 295.146,100.039 296.479,97.5388 299.5,96C 359.833,95.3333 420.167,95.3333 480.5,96C 496.681,100.349 507.015,110.516 511.5,126.5C 511.5,228.5 511.5,330.5 511.5,432.5C 507.015,448.484 496.681,458.651 480.5,463C 461.503,463.5 442.503,463.667 423.5,463.5C 423.667,478.17 423.5,492.837 423,507.5C 422.31,509.35 421.144,510.684 419.5,511.5C 416.167,511.5 412.833,511.5 409.5,511.5C 398.399,508.679 387.065,506.346 375.5,504.5C 363.935,506.346 352.601,508.679 341.5,511.5C 338.167,511.5 334.833,511.5 331.5,511.5C 329.856,510.684 328.69,509.35 328,507.5C 327.5,490.17 327.333,472.837 327.5,455.5C 325.711,451.188 322.877,447.521 319,444.5C 316.302,440.633 313.802,436.633 311.5,432.5C 233.17,431.5 154.836,431.167 76.5,431.5C 75.3117,430.636 74.1451,429.636 73,428.5C 71.4813,404.315 58.6479,391.481 34.5,390C 33.1068,388.829 32.2735,387.329 32,385.5C 31.3333,314.5 31.3333,243.5 32,172.5C 32.4652,171.069 33.2986,169.903 34.5,169C 57.906,167.926 70.406,155.76 72,132.5C 72.4652,131.069 73.2986,129.903 74.5,129C 84.0607,127.552 93.7274,127.052 103.5,127.5C 103.5,122.167 103.5,116.833 103.5,111.5C 80.1643,111.333 56.831,111.5 33.5,112C 25,115.167 19.1667,121 16,129.5C 15.5,226.833 15.3333,324.166 15.5,421.5C 15.4339,434.269 21.4339,442.769 33.5,447C 124.167,447.333 214.833,447.667 305.5,448C 309.518,448.863 311.518,451.363 311.5,455.5C 311.854,458.961 310.521,461.461 307.5,463C 215.167,463.667 122.833,463.667 30.5,463C 14.3186,458.651 3.98523,448.484 -0.5,432.5C -0.5,330.5 -0.5,228.5 -0.5,126.5C 3.37972,112.115 12.3797,102.281 26.5,97C 52.1152,95.537 77.7819,95.037 103.5,95.5C 103.823,91.774 103.489,88.1073 102.5,84.5C 92.5887,79.6278 82.7554,74.6278 73,69.5C 71,65.5 71,61.5 73,57.5C 111.305,38.2644 149.472,18.9311 187.5,-0.5 Z"/></g>
<g><path style="opacity:1" fill="#585f5f" d="M 269.5,55.5 C 243.874,69.3143 217.874,82.6476 191.5,95.5C 165.126,82.6476 139.126,69.3143 113.5,55.5C 139.473,42.5133 165.473,29.5133 191.5,16.5C 217.527,29.5133 243.527,42.5133 269.5,55.5 Z"/></g>
<g><path style="opacity:1" fill="#4b5556" d="M 113.5,55.5 C 139.126,69.3143 165.126,82.6476 191.5,95.5C 217.874,82.6476 243.874,69.3143 269.5,55.5C 274.14,57.8201 278.807,60.1534 283.5,62.5C 284.833,63.1667 284.833,63.8333 283.5,64.5C 252.833,79.8333 222.167,95.1667 191.5,110.5C 160.833,95.1667 130.167,79.8333 99.5,64.5C 98.1667,63.8333 98.1667,63.1667 99.5,62.5C 104.193,60.1534 108.86,57.8201 113.5,55.5 Z"/></g>
<g><path style="opacity:1" fill="#4b5556" d="M 263.5,115.5 C 239.527,127.487 215.527,139.487 191.5,151.5C 167.473,139.487 143.473,127.487 119.5,115.5C 119.334,107.826 119.5,100.159 120,92.5C 143.417,104.709 167.084,116.375 191,127.5C 215.37,116.649 239.37,104.982 263,92.5C 263.5,100.159 263.666,107.826 263.5,115.5 Z"/></g>
<g><path style="opacity:1" fill="#e9d48f" d="M 279.5,103.5 C 284.833,103.5 290.167,103.5 295.5,103.5C 295.625,107.063 297.292,109.563 300.5,111C 359.167,111.333 417.833,111.667 476.5,112C 485.573,114.739 491.74,120.573 495,129.5C 495.5,226.833 495.667,324.166 495.5,421.5C 489.777,426.527 483.11,429.694 475.5,431C 463.838,431.5 452.171,431.667 440.5,431.5C 444.201,421.835 446.701,411.835 448,401.5C 456.015,394.158 465.515,390.324 476.5,390C 477.893,388.829 478.727,387.329 479,385.5C 479.993,313.752 479.66,242.085 478,170.5C 476.829,169.107 475.329,168.273 473.5,168C 450.769,165.933 438.935,153.433 438,130.5C 436.829,129.107 435.329,128.273 433.5,128C 382.168,127.5 330.834,127.333 279.5,127.5C 279.5,119.5 279.5,111.5 279.5,103.5 Z"/></g>
<g><path style="opacity:1" fill="#e9d48f" d="M 76.5,431.5 C 61.8295,431.667 47.1629,431.5 32.5,431C 26.2177,428.873 20.551,425.706 15.5,421.5C 15.3333,324.166 15.5,226.833 16,129.5C 19.1667,121 25,115.167 33.5,112C 56.831,111.5 80.1643,111.333 103.5,111.5C 103.5,116.833 103.5,122.167 103.5,127.5C 93.7274,127.052 84.0607,127.552 74.5,129C 73.2986,129.903 72.4652,131.069 72,132.5C 70.406,155.76 57.906,167.926 34.5,169C 33.2986,169.903 32.4652,171.069 32,172.5C 31.3333,243.5 31.3333,314.5 32,385.5C 32.2735,387.329 33.1068,388.829 34.5,390C 58.6479,391.481 71.4813,404.315 73,428.5C 74.1451,429.636 75.3117,430.636 76.5,431.5 Z"/></g>
<g><path style="opacity:1" fill="#3e484a" d="M 119.5,115.5 C 143.473,127.487 167.473,139.487 191.5,151.5C 215.527,139.487 239.527,127.487 263.5,115.5C 263.805,120.762 263.471,125.928 262.5,131C 238.833,142.833 215.167,154.667 191.5,166.5C 167.833,154.667 144.167,142.833 120.5,131C 119.529,125.928 119.195,120.762 119.5,115.5 Z"/></g>
<g><path style="opacity:1" fill="#f5f5f5" d="M 86.5,143.5 C 94.5069,143.334 102.507,143.5 110.5,144C 137.162,157.581 163.995,170.748 191,183.5C 218.46,171.021 245.626,157.854 272.5,144C 323.166,143.5 373.832,143.333 424.5,143.5C 428.034,161.542 438.368,174.042 455.5,181C 458.168,181.567 460.834,182.067 463.5,182.5C 463.5,247.167 463.5,311.833 463.5,376.5C 457.355,377.069 451.688,379.069 446.5,382.5C 430.025,338.426 398.691,321.259 352.5,331C 315.207,346.921 299.54,374.921 305.5,415C 232.501,415.5 159.501,415.667 86.5,415.5C 81.8461,394.179 68.8461,381.179 47.5,376.5C 47.5,311.833 47.5,247.167 47.5,182.5C 68.8333,177.833 81.8333,164.833 86.5,143.5 Z"/></g>
<g><path style="opacity:1" fill="#000000" d="M 164.5,207.5 C 224.834,207.333 285.168,207.5 345.5,208C 351.462,210.405 352.962,214.571 350,220.5C 348.829,221.893 347.329,222.727 345.5,223C 285.167,223.667 224.833,223.667 164.5,223C 157.889,217.798 157.889,212.631 164.5,207.5 Z"/></g>
<g><path style="opacity:1" fill="#000000" d="M 108.5,247.5 C 206.167,247.333 303.834,247.5 401.5,248C 407.462,250.405 408.962,254.571 406,260.5C 404.829,261.893 403.329,262.727 401.5,263C 303.833,263.667 206.167,263.667 108.5,263C 101.889,257.798 101.889,252.631 108.5,247.5 Z"/></g>
<g><path style="opacity:1" fill="#000000" d="M 108.5,287.5 C 206.167,287.333 303.834,287.5 401.5,288C 407.462,290.405 408.962,294.571 406,300.5C 404.829,301.893 403.329,302.727 401.5,303C 303.833,303.667 206.167,303.667 108.5,303C 101.889,297.798 101.889,292.631 108.5,287.5 Z"/></g>
<g><path style="opacity:1" fill="#add677" d="M 430.5,410.5 C 424.371,417.79 417.371,424.29 409.5,430C 403.381,433.76 397.048,435.927 390.5,436.5C 409.079,427.354 417.245,412.354 415,391.5C 406.072,365.618 388.238,355.784 361.5,362C 343.136,370.225 334.636,384.392 336,404.5C 338.149,418.826 345.649,429.16 358.5,435.5C 358.631,436.239 358.464,436.906 358,437.5C 342.782,432.092 330.282,423.092 320.5,410.5C 316.803,377.715 330.47,355.882 361.5,345C 395.506,339.91 418.34,353.41 430,385.5C 431.79,393.805 431.957,402.139 430.5,410.5 Z"/></g>
<g><path style="opacity:1" fill="#020302" d="M 390.5,436.5 C 379.628,440.804 368.962,440.47 358.5,435.5C 345.649,429.16 338.149,418.826 336,404.5C 334.636,384.392 343.136,370.225 361.5,362C 388.238,355.784 406.072,365.618 415,391.5C 417.245,412.354 409.079,427.354 390.5,436.5 Z"/></g>
<g><path style="opacity:1" fill="#020202" d="M 108.5,375.5 C 131.502,375.333 154.502,375.5 177.5,376C 183.462,378.405 184.962,382.571 182,388.5C 180.829,389.893 179.329,390.727 177.5,391C 154.5,391.667 131.5,391.667 108.5,391C 101.889,385.798 101.889,380.631 108.5,375.5 Z"/></g>
<g><path style="opacity:1" fill="#71c7af" d="M 369.5,375.5 C 384.153,373.738 393.987,379.738 399,393.5C 400.75,407.833 394.917,417.666 381.5,423C 367.192,424.761 357.358,418.928 352,405.5C 349.836,394.991 353.002,386.491 361.5,380C 364.099,378.205 366.766,376.705 369.5,375.5 Z"/></g>
<g><path style="opacity:1" fill="#93bc59" d="M 320.5,410.5 C 330.282,423.092 342.782,432.092 358,437.5C 358.464,436.906 358.631,436.239 358.5,435.5C 368.962,440.47 379.628,440.804 390.5,436.5C 397.048,435.927 403.381,433.76 409.5,430C 417.371,424.29 424.371,417.79 430.5,410.5C 422.425,439.233 403.425,454.233 373.5,455.5C 354.032,454.187 338.865,445.521 328,429.5C 324.607,423.483 322.107,417.15 320.5,410.5 Z"/></g>
<g><path style="opacity:1" fill="#f0ca65" d="M 15.5,421.5 C 20.551,425.706 26.2177,428.873 32.5,431C 47.1629,431.5 61.8295,431.667 76.5,431.5C 154.836,431.167 233.17,431.5 311.5,432.5C 313.802,436.633 316.302,440.633 319,444.5C 322.877,447.521 325.711,451.188 327.5,455.5C 322.167,455.5 316.833,455.5 311.5,455.5C 311.518,451.363 309.518,448.863 305.5,448C 214.833,447.667 124.167,447.333 33.5,447C 21.4339,442.769 15.4339,434.269 15.5,421.5 Z"/></g>
<g><path style="opacity:1" fill="#eec965" d="M 495.5,421.5 C 495.499,434.673 489.166,443.173 476.5,447C 460.833,447.667 445.167,447.667 429.5,447C 433.418,441.931 437.085,436.764 440.5,431.5C 452.171,431.667 463.838,431.5 475.5,431C 483.11,429.694 489.777,426.527 495.5,421.5 Z"/></g>
<g><path style="opacity:1" fill="#ca4d5d" d="M 343.5,464.5 C 364.463,473.767 385.463,473.767 406.5,464.5C 407.498,474.144 407.832,483.81 407.5,493.5C 396.621,491.824 385.787,489.824 375,487.5C 364.524,489.695 354.024,491.695 343.5,493.5C 343.5,483.833 343.5,474.167 343.5,464.5 Z"/></g>
</svg>
